# Alias OBJ Model File
# Exported from SketchUp, (c) 2000-2012 Trimble Navigation Limited
# File units = meters

mtllib LeftWing.mtl

g Mesh1 Model

usemtl Color_J05
v -0.227951 -0.37465 1.34227
vt -22.6338 -31.1282
vn 0.530613 -0.357091 -0.768723
v 0.341299 0 1.56116
vt -45.9735 -15.337
v 0.187069 -0.3048 1.59629
vt -41.762 -28.184
f 1/1/1 2/2/1 3/3/1

vt -61.9966 -8.1911
vn 0.596719 -0.76487 -0.242695
vt -45.5703 -31.0882
v 0.175164 0 1.15268
vt -44.6355 -8.1911
f 2/4/2 1/5/2 4/6/2

vt -52.5855 -17.6282
vn 0.676068 -0.736616 -0.0181432
v 0.150044 0 0.216629
vt -8.6841 4.18128
v 0.174395 0 1.12402
vt -44.4209 4.18128
vt -45.5499 4.18128
f 1/7/3 5/8/3 6/9/3 4/10/3 

vt -8.48384 4.19307
vn 0.711979 -0.70218 0.00537772
vt -52.9115 -16.5232
v -0.188394 -0.343162 0.216629
vt -8.58447 -14.7821
f 5/11/4 1/12/4 7/13/4

vt 53.2667 -8.13503
vn -0.79547 -0.60433 -0.0448594
v -0.440358 0 0.0616286
vt 3.39862 10.378
vt 8.93278 -6.57907
f 1/14/5 8/15/5 7/16/5

vt 5.52261 12.655
vn -0.637122 -0.761802 -0.117191
vt 53.5969 -10.114
v -0.669153 0 1.30549
vt 55.3152 12.655
f 8/17/6 1/18/6 9/19/6

vt 25.7866 34.3662
vn -0.601572 -0.664987 0.44261
vt 37.2469 14.6168
v -0.53563 0 1.48697
vt 34.6569 34.3662
f 9/20/7 1/21/7 10/22/7

vt 16.0012 17.8237
vn -0.369035 -0.58272 0.724052
v 0.104325 0 1.81314
vt 36.0747 35.9737
vt 7.79584 35.9737
f 1/23/8 11/24/8 10/25/8

vt 34.1231 37.9982
vn -0.33925 -0.604741 0.720554
vt 14.3908 19.4779
vt 33.4337 22.9309
f 11/26/9 1/27/9 3/28/9

vt 21.9105 41.0744
vn -0.200338 -0.603487 0.771796
vt 22.9186 26.025
v 0.945162 0 2.0314
vt 56.1114 41.0744
f 11/29/10 3/30/10 12/31/10

vt -44.4238 -27.9353
vn 0.570101 -0.372851 -0.732098
vt -48.3648 -15.0028
vt -78.4972 -15.0028
f 3/32/11 2/33/11 12/34/11

vt -48.3648 15.0028
vn 0.570101 0.372851 -0.732098
v 0.187069 0.3048 1.59629
vt -44.4238 27.9353
vt -78.4972 15.0028
f 2/35/12 13/36/12 12/37/12

vt -45.9735 15.337
vn 0.530613 0.357091 -0.768723
v -0.227951 0.37465 1.34227
vt -22.6338 31.1282
vt -41.762 28.184
f 2/38/13 14/39/13 13/40/13

vt -45.5703 31.0882
vn 0.596719 0.76487 -0.242695
vt -61.9966 8.1911
vt -44.6355 8.1911
f 14/41/14 2/42/14 4/43/14

vt -8.6841 -4.18128
vn 0.676068 0.736616 -0.0181432
vt -52.5855 17.6282
vt -45.5499 -4.18128
vt -44.4209 -4.18128
f 5/44/15 14/45/15 4/46/15 6/47/15 

vt -52.9115 16.5232
vn 0.711979 0.70218 0.00537772
vt -8.48384 -4.19307
v -0.188394 0.343162 0.216629
vt -8.58447 14.7821
f 14/48/16 5/49/16 15/50/16

v 0.143526 0 -0.0262434
vt 0.881245 -3.98513
vn 0.71186 0.702062 -0.0191037
vt -8.32665 14.9869
vt -8.6841 -3.98513
f 16/51/17 15/52/17 5/53/17

vt -9.63949 14.1491
vn 0.756376 0.641682 0.127046
vt 1.95494 -3.466
v 0.122563 0.198437 -0.903697
vt 35.8864 6.72017
f 15/54/18 16/55/18 17/56/18

vt 35.9043 6.40172
vn 0.812607 0.572334 0.11002
vt 1.78199 -3.12548
v 0.253733 0 -0.84023
vt 34.1211 -3.12548
f 17/57/19 16/58/19 18/59/19

vt 1.78199 3.12548
vn 0.812607 -0.572334 0.11002
v 0.122563 -0.198437 -0.903697
vt 35.9043 -6.40172
vt 34.1211 3.12548
f 16/60/20 19/61/20 18/62/20

vt 1.95494 3.466
vn 0.756376 -0.641682 0.127046
vt -9.63949 -14.1491
vt 35.8864 -6.72017
f 16/63/21 7/64/21 19/65/21

vt -8.32665 -14.9869
vn 0.71186 -0.702062 -0.0191037
vt 0.881245 3.98513
vt -8.6841 3.98513
f 7/66/22 16/67/22 5/68/22

vt 8.63226 9.85599
vn -0.708926 -0.647161 -0.28037
vt -34.8598 -0.391882
vt 10.6588 -7.86585
f 8/69/23 19/70/23 7/71/23

vt -35.2317 -0.0680726
vn -0.632032 -0.744361 -0.215549
vt 7.89256 11.6312
v -0.0780401 0 -1.00076
vt -36.2992 11.6312
f 19/72/24 8/73/24 20/74/24

vt 7.89256 -11.6312
vn -0.632032 0.744361 -0.215549
vt -35.2317 0.0680726
vt -36.2992 -11.6312
f 8/75/25 17/76/25 20/77/25

vt -34.8598 0.391882
vn -0.708926 0.647161 -0.28037
vt 8.63226 -9.85599
vt 10.6588 7.86585
f 17/78/26 8/79/26 15/80/26

vt 3.39862 -10.378
vn -0.79547 0.60433 -0.0448594
vt 53.2667 8.13503
vt 8.93278 6.57907
f 8/81/27 14/82/27 15/83/27

vt 53.5969 10.114
vn -0.637122 0.761802 -0.117191
vt 5.52261 -12.655
vt 55.3152 -12.655
f 14/84/28 8/85/28 9/86/28

vt 37.2469 -14.6168
vn -0.601572 0.664987 0.44261
vt 25.7866 -34.3662
vt 34.6569 -34.3662
f 14/87/29 9/88/29 10/89/29

vt 36.0747 -35.9737
vn -0.369035 0.58272 0.724052
vt 16.0012 -17.8237
vt 7.79584 -35.9737
f 11/90/30 14/91/30 10/92/30

vt 14.3908 -19.4779
vn -0.33925 0.604741 0.720554
vt 34.1231 -37.9982
vt 33.4337 -22.9309
f 14/93/31 11/94/31 13/95/31

vt 22.9186 -26.025
vn -0.200338 0.603487 0.771796
vt 21.9105 -41.0744
vt 56.1114 -41.0744
f 13/96/32 11/97/32 12/98/32

vt -33.0405 -5.27059
vn -0.572629 0.745599 -0.34085
v 0.945162 0 -2.71974
vt -111.043 -16.9941
vt -32.2846 -16.9941
f 17/99/33 21/100/33 20/101/33

vt 113.339 1.20709
vn 0.757735 0.590029 0.278753
vt 35.0568 10.8834
vt 34.4947 1.20709
f 21/102/34 17/103/34 18/104/34

vt 35.0568 -10.8834
vn 0.757735 -0.590029 0.278753
vt 113.339 -1.20709
vt 34.4947 -1.20709
f 19/105/35 21/106/35 18/107/35

vt -111.043 16.9941
vn -0.572629 -0.745599 -0.34085
vt -33.0405 5.27059
vt -32.2846 16.9941
f 21/108/36 19/109/36 20/110/36

v 0.163505 0 1.12402
vt -6.43721 -44.2526
vn 0 -1 -0
vt -6.86595 -44.2526
vt -6.89624 -45.3812
f 22/111/37 6/112/37 4/113/37

