# Alias OBJ Model File
# Exported from SketchUp, (c) 2000-2012 Trimble Navigation Limited
# File units = meters

mtllib RightWing.mtl

g Mesh1 Model

usemtl Color_J05
v 0.171683 0 1.81314
vt -24.2918 -40.7974
vn 0.33925 0.604741 0.720554
v 0.50396 0.37465 1.34227
vt -4.55945 -22.2771
v 0.0889397 0.3048 1.59629
vt -23.6024 -25.7301
f 1/1/1 2/2/1 3/3/1

vt -6.31974 -20.6991
vn 0.369035 0.58272 0.724052
vt -26.3932 -38.8491
v 0.811639 0 1.48697
vt 1.88567 -38.8491
f 2/4/2 1/5/2 4/6/2

vt -26.3932 38.8491
vn 0.369035 -0.58272 0.724052
v 0.50396 -0.37465 1.34227
vt -6.31974 20.6991
vt 1.88567 38.8491
f 1/7/3 5/8/3 4/9/3

vt -4.55945 22.2771
vn 0.33925 -0.604741 0.720554
vt -24.2918 40.7974
v 0.0889397 -0.3048 1.59629
vt -23.6024 25.7301
f 5/10/4 1/11/4 6/12/4

vt -12.4007 27.6726
vn 0.200338 -0.603487 0.771796
vt -11.3926 42.7221
v -0.669153 0 2.0314
vt -45.5935 42.7221
f 6/13/5 1/14/5 7/15/5

vt -11.3926 -42.7221
vn 0.200338 0.603487 0.771796
vt -12.4007 -27.6726
vt -45.5935 -42.7221
f 1/16/6 3/17/6 7/18/6

vt 35.8503 30.4246
vn -0.570101 0.372851 -0.732098
v -0.0652898 0 1.56116
vt 39.7913 17.4921
vt 69.9236 17.4921
f 3/19/7 8/20/7 7/21/7

vt 13.6908 33.3324
vn -0.530613 0.357091 -0.768723
vt 37.0305 17.5413
vt 32.819 30.3883
f 2/22/8 8/23/8 3/24/8

vt 57.9026 15.8901
vn -0.596719 0.76487 -0.242695
vt 41.4764 38.7873
v 0.100844 0 1.15268
vt 40.5416 15.8901
f 8/25/9 2/26/9 9/27/9

vt 52.294 25.6298
vn -0.676068 0.736616 -0.0181432
v 0.125965 0 0.216629
vt 8.39259 3.82028
v 0.101614 0 1.12402
vt 44.1294 3.82028
vt 45.2584 3.82028
f 2/28/10 10/29/10 11/30/10 9/31/10 

vt 8.56591 3.43695
vn -0.711979 0.70218 0.00537772
vt 52.9936 24.1532
v 0.464403 0.343162 0.216629
vt 8.66655 22.4121
f 10/32/11 2/33/11 12/34/11

vt -53.8785 1.5785
vn 0.79547 0.60433 -0.0448594
v 0.716367 0 0.0616286
vt -4.01044 -16.9346
vt -9.54461 0.0225386
f 2/35/12 13/36/12 12/37/12

vt -7.4884 -20.7965
vn 0.637122 0.761802 -0.117191
vt -55.5626 1.97247
v 0.945162 0 1.30549
vt -57.281 -20.7965
f 13/38/13 2/39/13 14/40/13

vt -19.3468 -40.1867
vn 0.601572 0.664987 0.44261
vt -30.8071 -20.4372
vt -28.2171 -40.1867
f 14/41/14 2/42/14 4/43/14

vt -30.8071 20.4372
vn 0.601572 -0.664987 0.44261
vt -19.3468 40.1867
vt -28.2171 40.1867
f 5/44/15 14/45/15 4/46/15

vt -55.5626 -1.97247
vn 0.637122 -0.761802 -0.117191
vt -7.4884 20.7965
vt -57.281 20.7965
f 5/47/16 13/48/16 14/49/16

vt -4.01044 16.9346
vn 0.79547 -0.60433 -0.0448594
vt -53.8785 -1.5785
v 0.464403 -0.343162 0.216629
vt -9.54461 -0.0225386
f 13/50/17 5/51/17 15/52/17

vt 52.9936 -24.1532
vn -0.711979 -0.70218 0.00537772
vt 8.56591 -3.43695
vt 8.66655 -22.4121
f 5/53/18 10/54/18 15/55/18

vt 8.39259 -3.82028
vn -0.676068 -0.736616 -0.0181432
vt 52.294 -25.6298
vt 45.2584 -3.82028
vt 44.1294 -3.82028
f 10/56/19 5/57/19 9/58/19 11/59/19 

vt 41.4764 -38.7873
vn -0.596719 -0.76487 -0.242695
vt 57.9026 -15.8901
vt 40.5416 -15.8901
f 5/60/20 8/61/20 9/62/20

vt 37.0305 -17.5413
vn -0.530613 -0.357091 -0.768723
vt 13.6908 -33.3324
vt 32.819 -30.3883
f 8/63/21 5/64/21 6/65/21

vt 39.7913 -17.4921
vn -0.570101 -0.372851 -0.732098
vt 35.8503 -30.4246
vt 69.9236 -17.4921
f 8/66/22 6/67/22 7/68/22

vt -4.00054 -44.2526
vn 0 -1 -0
v 0.112504 0 1.12402
vt -4.42929 -44.2526
vt -3.97026 -45.3812
f 11/69/23 16/70/23 9/71/23

v 0.132483 0 -0.0262434
vt -1.17276 -3.64107
vn -0.71186 -0.702062 -0.0191037
vt 8.03514 -22.6131
vt 8.39259 -3.64107
f 17/72/24 15/73/24 10/74/24

vt 11.4395 -21.0256
vn -0.756376 -0.641682 0.127046
vt -0.154941 -3.4105
v 0.153446 -0.198437 -0.903697
vt -34.0864 -13.5967
f 15/75/25 17/76/25 18/77/25

vt -34.4464 -12.5648
vn -0.812607 -0.572334 0.11002
vt -0.324067 -3.03755
v 0.0222758 0 -0.84023
vt -32.6632 -3.03755
f 18/78/26 17/79/26 19/80/26

vt -0.324067 3.03755
vn -0.812607 0.572334 0.11002
v 0.153446 0.198437 -0.903697
vt -34.4464 12.5648
vt -32.6632 3.03755
f 17/81/27 20/82/27 19/83/27

vt -0.154941 3.4105
vn -0.756376 0.641682 0.127046
vt 11.4395 21.0256
vt -34.0864 13.5967
f 17/84/28 12/85/28 20/86/28

vt 8.03514 22.6131
vn -0.71186 0.702062 -0.0191037
vt -1.17276 3.64107
vt 8.39259 3.64107
f 12/87/29 17/88/29 10/89/29

vt -12.6286 -16.3955
vn 0.708926 0.647161 -0.28037
vt 30.8634 -6.14764
vt -14.6551 1.32633
f 13/90/30 20/91/30 12/92/30

vt 31.7242 -7.58756
vn 0.632032 0.744361 -0.215549
vt -11.4001 -19.2868
v 0.354049 0 -1.00076
vt 32.7917 -19.2868
f 20/93/31 13/94/31 21/95/31

vt -11.4001 19.2868
vn 0.632032 -0.744361 -0.215549
vt 31.7242 7.58756
vt 32.7917 19.2868
f 13/96/32 18/97/32 21/98/32

vt 30.8634 6.14764
vn 0.708926 -0.647161 -0.28037
vt -12.6286 16.3955
vt -14.6551 -1.32633
f 18/99/33 13/100/33 15/101/33

vt 27.4825 12.2326
vn 0.572629 -0.745599 -0.34085
v -0.669153 0 -2.71974
vt 105.485 23.9561
vt 26.7266 23.9561
f 18/102/34 22/103/34 21/104/34

vt -109.588 -7.22438
vn -0.757735 -0.590029 0.278753
vt -31.3051 -16.9007
vt -30.743 -7.22438
f 22/105/35 18/106/35 19/107/35

vt -31.3051 16.9007
vn -0.757735 0.590029 0.278753
vt -109.588 7.22438
vt -30.743 7.22438
f 20/108/36 22/109/36 19/110/36

vt 105.485 -23.9561
vn 0.572629 0.745599 -0.34085
vt 27.4825 -12.2326
vt 26.7266 -23.9561
f 22/111/37 20/112/37 21/113/37

