# Alias OBJ Model File
# Exported from SketchUp, (c) 2000-2012 Trimble Navigation Limited
# File units = meters

mtllib Engine.mtl

g Mesh1 Model

usemtl FrontColor
v 0.452618 0.0228973 0.0278549
vt 1.01448 -13.1064
vn 0.636315 0.767712 0.0756407
v 0.00294461 0.422395 -0.244025
vt 9.55378 11.4385
v 0.00453581 0.340713 0.571614
vt -22.3261 6.42002
f 1/1/1 2/2/1 3/3/1

vt 7.49323 14.9002
vn 0.470504 0.792991 0.387028
vt 10.4733 -10.9163
v 1.34719 0.0228973 -1.05966
vt 65.9133 -10.9163
f 2/4/2 1/5/2 4/6/2

vt 10.4733 12.0147
vn 0.470504 -0.792991 0.387028
v 0.00294461 -0.3766 -0.244025
vt 7.49323 -13.8018
vt 65.9133 12.0147
f 1/7/3 5/8/3 4/9/3

vt 9.55378 -10.2832
vn 0.636315 -0.767712 0.0756407
vt 1.01448 14.2617
v 0.00453581 -0.294918 0.571614
vt -22.3261 -5.2647
f 5/10/4 1/11/4 6/12/4

vt -22.0056 -4.67271
vn 0.680326 -0.719384 0.140155
vt 2.52144 13.3408
v 0.00453581 0.0228973 2.20289
vt -84.9081 13.3408
f 6/13/5 1/14/5 7/15/5

vt 2.52144 -12.0885
vn 0.680326 0.719384 0.140155
vt -22.0056 5.92505
vt -84.9081 -12.0885
f 1/16/6 3/17/6 7/18/6

vt -64.8129 10.786
vn -0.317149 -0.533578 -0.784035
vt -3.71011 -7.81079
v 0.339006 0.0228973 -0.651844
vt -21.9962 10.786
f 4/19/7 5/20/7 8/21/7

vt -28.2929 0.901468
vn -0.771735 0 -0.635944
vt -7.48799 -14.8268
v 0.00294461 0.0228973 -0.244025
vt -7.48799 0.901468
f 8/22/8 5/23/8 9/24/8

vt 7.34054 -14.8268
vn 0.771735 -6.60376e-17 -0.635944
v -0.333117 0.0228973 -0.651844
vt 28.1454 0.901468
vt 7.34054 0.901468
f 5/25/9 10/26/9 9/27/9

vt 3.49517 -7.7644
vn 0.317149 -0.533578 -0.784035
v -1.3413 0.0228973 -1.05966
vt 64.598 10.8324
vt 21.7813 10.8324
f 5/28/10 11/29/10 10/30/10

vt -7.34054 -13.9584
vn -0.470903 -0.792257 0.388045
v -0.445137 0.0228973 0.0278549
vt -10.2987 11.8176
vt -65.7784 11.8176
f 5/31/11 12/32/11 11/33/11

vt -1.0085 14.0226
vn -0.63715 -0.766904 0.0768011
vt -9.52435 -10.4853
v 0.00294461 -0.294918 0.571614
vt 22.3566 -5.47434
f 12/34/12 5/35/12 13/36/12

vt -2.46202 13.1333
vn -0.680326 -0.719384 0.140155
vt 22.065 -4.88021
v 0.00294461 0.0228973 2.20289
vt 84.9675 13.1333
f 12/37/13 13/38/13 14/39/13

v 0.00294461 0.340713 0.571614
vt 22.065 6.13256
vn -0.680326 0.719384 0.140155
vt -2.46202 -11.881
vt 84.9675 -11.881
f 15/40/14 12/41/14 14/42/14

vt -9.52435 11.6423
vn -0.63715 0.766904 0.0768011
vt -1.0085 -12.8656
vt 22.3566 6.6314
f 2/43/15 12/44/15 15/45/15

vt -10.2987 -10.7175
vn -0.470903 0.792257 0.388045
vt -7.34054 15.0586
vt -65.7784 -10.7175
f 12/46/16 2/47/16 11/48/16

vt 64.598 -9.30754
vn 0.317149 0.533578 -0.784035
vt 3.49517 9.28923
vt 21.7813 -9.30754
f 11/49/17 2/50/17 10/51/17

vt 7.34054 16.6297
f 10/26/9 2/52/9 9/27/9

vt -7.48799 16.6297
f 2/53/8 8/22/8 9/24/8

vt -3.71011 9.33563
vn -0.317149 0.533578 -0.784035
vt -64.8129 -9.26115
vt -21.9962 -9.26115
f 2/54/18 4/55/18 8/56/18

