# Alias OBJ Model File
# Exported from SketchUp, (c) 2000-2012 Trimble Navigation Limited
# File units = meters

mtllib Head.mtl

g Mesh1 Model

usemtl FrontColor
v 0.625261 -0.00203148 -0.117284
vt -0.331901 -9.75094
vn 0.904184 0.386412 -0.182039
v 0.416718 0.485948 -0.117284
vt 1.28857 11.0788
v 0.938075 -0.00203148 1.43646
vt -62.7304 -9.75094
f 1/1/1 2/2/1 3/3/1

v -0.000367653 -0.00203148 -1.67103
vt 61.0324 -9.12523
vn 0.862335 0.368527 -0.347226
vt -1.8447 11.5411
vt -4.91139 -9.12523
f 4/4/2 2/5/2 1/6/2

vt -9.44289 -3.43529
vn 0.308442 0.880733 -0.359407
vt 42.8559 -43.9995
v -0.000367653 0.632016 -0.117284
vt 3.01813 8.7069
f 2/7/3 4/8/3 5/9/3

vt -42.834 -44.0162
vn -0.308442 0.880733 -0.359407
v -0.417453 0.485948 -0.117284
vt 9.46486 -3.45189
vt -2.99616 8.6903
f 4/10/4 6/11/4 5/12/4

vt 1.85551 11.5312
vn -0.862335 0.368527 -0.347226
vt -61.0216 -9.13513
v -0.625996 -0.00203148 -0.117284
vt 4.92221 -9.13513
f 6/13/5 4/14/5 7/15/5

vt -61.0216 8.98643
vn -0.862335 -0.368527 -0.347226
v -0.417453 -0.490011 -0.117284
vt 1.85551 -11.6799
vt 4.92221 8.98643
f 4/16/6 8/17/6 7/18/6

vt 9.46486 3.37614
vn -0.308442 -0.880733 -0.359407
vt -42.834 43.9404
v -0.000367653 -0.636079 -0.117284
vt -2.99616 -8.76606
f 8/19/7 4/20/7 9/21/7

vt 42.8559 43.9238
vn 0.308442 -0.880733 -0.359407
v 0.416718 -0.490011 -0.117284
vt -9.44289 3.35953
vt 3.01813 -8.78266
f 4/22/8 10/23/8 9/24/8

vt -1.8447 -11.6898
vn 0.862335 -0.368527 -0.347226
vt 61.0324 8.97653
vt -4.91139 8.97653
f 10/25/9 4/26/9 1/27/9

vt 1.28857 -11.2263
vn 0.904184 -0.386412 -0.182039
vt -0.331901 9.6034
vt -62.7304 9.6034
f 10/28/10 1/29/10 3/30/10

v 0.625261 -0.00203148 0.659588
vt 33.2832 -2.6324
vn -0.909921 -0.194432 0.366387
vt 1.8447 -22.218
vt 66.2551 -2.6324
f 11/31/11 10/32/11 3/33/11

vt 6.34726 29.6342
vn 0.295147 -0.842769 0.450143
vt 2.51975 -16.7407
vt 16.2519 -6.05716
f 11/34/12 9/35/12 10/36/12

vt -3.60537 -25.0425
vn -0.778845 -7.58277e-16 0.627217
vt 35.665 -0.0799795
v -0.000367653 -0.00203148 -0.117284
vt -3.60537 -0.0799795
f 9/37/13 11/38/13 12/39/13

vn -0.778845 -5.8329e-17 0.627217
vt -3.60537 24.8825
f 11/38/14 5/40/14 12/39/14

vt 2.51975 16.6546
vn 0.295147 0.842769 0.450143
vt 6.34726 -29.7203
vt 16.2519 5.97106
f 5/41/15 11/42/15 2/43/15

vt 1.8447 22.0611
vn -0.909921 0.194432 0.366387
vt 33.2832 2.47549
vt 66.2551 2.47549
f 2/44/16 11/45/16 3/46/16

vt 3.58722 24.8825
vn 0.778845 -5.8329e-17 0.627217
v -0.625996 -0.00203148 0.659588
vt -35.6832 -0.0799795
vt 3.58722 -0.0799795
f 5/47/17 13/48/17 12/49/17

vt -6.37147 -29.7337
vn -0.295147 0.842769 0.450143
vt -2.54396 16.6413
vt -16.2761 5.95768
f 13/50/18 5/51/18 6/52/18

vt -33.2941 2.48072
vn 0.909921 0.194432 0.366387
vt -1.85551 22.0663
v -0.93881 -0.00203148 1.43646
vt -66.266 2.48072
f 13/53/19 6/54/19 14/55/19

vt -1.28285 11.0678
vn -0.904184 0.386412 -0.182039
vt 0.337615 -9.7619
vt 62.7361 -9.7619
f 6/56/20 7/57/20 14/58/20

vt 0.337615 9.61437
vn -0.904184 -0.386412 -0.182039
vt -1.28285 -11.2153
vt 62.7361 9.61437
f 7/59/21 8/60/21 14/61/21

vt -1.85551 -22.2232
vn 0.909921 -0.194432 0.366387
vt -33.2941 -2.63762
vt -66.266 -2.63762
f 8/62/22 13/63/22 14/64/22

vt -2.54396 -16.7274
vn -0.295147 -0.842769 0.450143
vt -6.37147 29.6476
vt -16.2761 -6.04378
f 9/65/23 13/66/23 8/67/23

vn 0.778845 -6.41619e-16 0.627217
vt 3.58722 -25.0425
f 13/48/24 9/68/24 12/49/24

