# Alias OBJ Model File
# Exported from SketchUp, (c) 2000-2012 Trimble Navigation Limited
# File units = meters

mtllib RightWing.mtl

g Mesh1 Model

usemtl FrontColor
v 0.275728 -0.590269 -0.546107
vt 14.6188 -29.3516
vn 0.549873 0.791658 -0.266304
v 0.410453 -0.379927 0.357377
vt -19.7066 -15.7973
v 1.02298 -0.590269 0.996853
vt -52.8767 -29.3516
f 1/1/1 2/2/1 3/3/1

vt -18.8643 -17.8939
vn 0.690315 0.675132 -0.260118
vt 16.2916 -29.1197
v -0.202079 -5.41434e-16 -0.2821
vt 13.1982 2.38233
f 2/4/2 1/5/2 4/6/2

v 0.00627657 -0.590269 -2.35308
vt 91.5912 -26.6702
vn 0.747455 0.654895 -0.111459
vt 12.1582 4.08053
vt 19.6641 -26.6702
f 5/7/3 4/8/3 1/9/3

vt -10.2541 -2.08794e-14
vn -0.994977 -4.83948e-17 -0.100102
vt -92.2002 -23.2389
v -0.202079 -0.590269 -0.2821
vt -10.2541 -23.2389
f 4/10/4 5/11/4 6/12/4

vn -0.994977 -3.58122e-15 -0.100102
v -0.202079 -1.18054 -0.2821
vt -10.2541 -46.4779
f 5/11/5 7/13/5 6/12/5

vt 12.1582 -39.2048
vn 0.747455 -0.654895 -0.111459
vt 91.5912 -8.45403
vt 19.6641 -8.45403
f 7/14/6 5/15/6 1/16/6

vt 16.2916 -5.16688
vn 0.690315 -0.675132 -0.260118
v 0.410453 -0.800612 0.357377
vt -18.8643 -16.3926
vt 13.1982 -36.6689
f 1/17/7 8/18/7 7/19/7

vt -19.7066 -12.5991
vn 0.549873 -0.791658 -0.266304
vt 14.6188 0.955241
vt -52.8767 0.955241
f 8/20/8 1/21/8 3/22/8

v -0.27153 -0.590269 0.408226
vt -3.0788 3.51936
vn -0.223168 -0.842211 0.490792
vt 20.5341 -11.8404
vt 52.9078 3.51936
f 9/23/9 8/24/9 3/25/9

vt 19.496 -13.9169
vn -0.186349 -0.755907 0.627597
vt -5.67323 -1.26763
vt -10.7881 -36.7643
f 8/26/10 9/27/10 7/28/10

v -1.6355 -0.590269 0.509923
vt -65.7041 -3.66548
vn 0.048608 -0.756719 0.65193
vt -7.10803 -39.2132
vt -11.8556 -3.66548
f 10/29/11 7/30/11 9/31/11

vt 1.59227 -46.4779
vn -0.483626 -1.68845e-15 -0.875275
vt 66.0678 -23.2389
vt 1.59227 -23.2389
f 7/32/12 10/33/12 6/34/12

vn -0.483626 1.77732e-16 -0.875275
vt 1.59227 -2.37279e-14
f 10/33/13 4/35/13 6/34/13

vt -7.10803 8.82871
vn 0.048608 0.756719 0.65193
vt -65.7041 -26.719
vt -11.8556 -26.719
f 4/36/14 10/37/14 9/38/14

vt -5.67323 -29.1605
vn -0.186349 0.755907 0.627597
vt 19.496 -16.5112
vt -10.7881 6.33623
f 9/39/15 2/40/15 4/41/15

vt 20.5341 -13.2181
vn -0.223168 0.842211 0.490792
vt -3.0788 -28.5779
vt 52.9078 -28.5779
f 2/42/16 9/43/16 3/44/16

